<?xml version="1.0" encoding="UTF-8"?>
<svg id="Layer_2" data-name="Layer 2" xmlns="http://www.w3.org/2000/svg" viewBox="0 0 3997.38 3996.36">
  <g id="Layer_1-2" data-name="Layer 1">
    <path d="m1933.5.18c-9.5.3-23.8,1-56.5,2.9-28.2,1.6-68.8,5.1-96,8.1-30.3,3.3-76.7,9.5-97.5,13-34.9,5.8-39.1,6.5-59.5,10.4-124.5,23.5-249.3,60-369.5,108-82.3,32.9-185.2,83.1-257,125.5-8.2,4.8-18.1,10.6-21.8,12.7-20.2,11.6-70.6,43.9-103.2,66.1-126.8,86.7-234.7,180.2-346.5,300.2-73.9,79.4-152.8,182.4-216.7,283-62.5,98.5-122,214.1-163.5,318l-9.8,24.5c-5.4,13.1-20.9,55.7-29,79.7-39.8,116.9-68,234.2-85.9,357.3-2.6,17.9-4,28.6-9.1,71-.5,4.7-1.7,16.4-2.5,26-.9,9.6-2.2,24.7-3,33.5s-1.7,22.5-2,30.5c-.4,8-.8,15.2-1.1,16-.8,3.2-3.4,87.8-3.4,113,.1,39.2,4.4,143.7,6.5,156.5.3,1.6.9,9.1,1.5,16.5,2.7,38.2,11.1,104.5,19.5,155.5.8,4.4,2,12,2.8,17,10.8,65.7,34.9,166.4,57.3,238.6,31.3,101.1,65.6,189,109.9,280.9,78.4,163,178.8,314.5,300.3,453,39.5,44.9,105.9,112.9,148.6,152,142,130,296.9,236.4,466.6,320.4,24.7,12.3,66.3,31.8,73.2,34.5,1.3.5,5.4,2.3,9.1,4,15.3,7,54.9,23.4,81.2,33.6,103.2,40,211.3,71.8,320,94.1,9.4,2,19.3,3.9,22,4.4,2.8.5,11.1,2,18.5,3.4,46,8.5,115.9,18.5,155,22.1,3.6.3,10.6,1,15.5,1.5,14.5,1.5,43.1,3.9,54.5,4.5,5.8.3,16.8,1,24.5,1.5,53.1,3.7,170.5,3.7,225.5,0,8-.5,19-1.2,24.5-1.5,46.6-2.6,136.7-13,186.5-21.5,64.7-11,106.3-19.5,155.9-31.9,63.4-15.9,96.7-25.5,156.6-45.6,63-21,106.3-37.9,181.5-70.8,61-26.7,145.6-71,213.5-111.9,84.5-50.9,181.3-119.9,250-178.4,2.8-2.3,10.2-8.6,16.5-14,51.9-44,118.7-108.2,168.4-162,23.9-25.8,40.4-44.2,48.1-53.4,2.2-2.7,11.7-14,21.1-25.2,150-178.6,273-394.6,349.9-614.3,16.3-46.5,39-120.2,46.9-152.5.4-1.4,3.7-14.9,7.5-30,9.1-36.4,10.5-42.4,17.2-74.5,4.8-23,11.8-61,15.4-83.5,1.4-9.1,3.2-20.6,4-25.5,7.8-48.6,15.3-121.7,19-183,3.6-60.1,3.9-174.7.5-223-.5-7.7-1.2-19-1.5-25-.9-17-5.2-66.1-8.1-91.5-6.5-57.3-13.9-105.3-25.1-163-27.4-141.6-71.3-281.7-130.6-417-16.6-37.8-46-98.9-61.2-127-3.7-6.9-8.5-15.9-10.8-20-7-13.1-22.7-41.2-27.7-49.5-2.6-4.4-8-13.6-12-20.5-58.3-99.5-144.8-217.9-222-303.9-5.2-5.8-11.3-12.6-13.4-15.1-6.2-7.1-45.7-49.1-61.1-64.9-11.8-12.1-45.9-44.8-74-71.1-55.1-51.3-140.8-119.7-209.4-167.2-58.1-40.2-132-85.8-183.6-113.3-4.9-2.6-14.2-7.6-20.5-11-10.7-5.8-77.5-39.5-78.4-39.5-.2,0-5.9-2.6-12.7-5.9-6.8-3.2-18.1-8.4-25.2-11.5-7-3.1-18.2-8-25-11-79-34.8-186-72.2-272.7-95.3-50.5-13.4-118.7-28.8-158.2-35.7-44.6-7.8-69.6-11.7-106.8-16.5-41.6-5.4-97.2-10.6-134.5-12.6-6-.4-17.1-1.1-24.5-1.6-12.8-.9-139.2-1.9-162.5-1.3Zm155.5,39.8c17.3.9,37.8,2,45.5,2.6,27.8,2.1,51.2,4.1,59.5,5,4.7.5,15.3,1.7,23.5,2.5,20.9,2.2,32,3.7,70.5,9.1,5.8.8,13,1.9,16,2.4s11.4,1.9,18.5,3c33,5.3,73.7,13.4,112,22.2,14.3,3.3,27.8,6.4,30,6.8,10.6,2.2,61.8,16,86,23.1,112.5,33.2,212.6,72.3,317,123.9,233.5,115.5,442.6,277.4,614.5,475.9,10.2,11.8,19.4,22.6,20.5,24,1.1,1.5,7.4,9.2,14,17.1,72.7,87.5,144.5,194.1,204.8,304,13.5,24.6,50.9,99,58.9,117,2.6,5.8,7.9,17.7,11.8,26.5,56.8,127.6,102.2,270.8,129,406.5,2.2,11.3,4.4,22.7,5,25.5,4.6,22.8,13.7,82.5,18.4,120,5.5,44.5,10.8,105.2,12.1,138,.3,8.2,1,23.3,1.5,33.5,1.3,23.9,1.3,115.1,0,139-.5,10.2-1.2,25.2-1.5,33.5-1.3,32.9-6.5,92.1-12.1,138-19.8,161.3-60.5,323.1-118.9,471.5-14.6,37.1-18.3,46.2-30,72.5-.7,1.6-3.2,7.3-5.5,12.5-11.4,26.3-46.8,98.8-60,123-23.5,43.2-31.8,57.7-51.8,91-35.9,59.6-82.8,128.4-122.9,180.1-2.7,3.5-6.5,8.4-8.4,10.9-25.9,34-72.7,89.1-110.9,130.5-23.7,25.7-77.8,79.9-103.5,103.5-37.6,34.6-75.9,67.6-111,95.6-20.2,16.1-19,15.1-45,34.7-194,146.3-415.2,255.8-647.5,320.7-8,2.2-16.7,4.7-19.5,5.4-10.1,2.9-57.5,14.6-75,18.6-61.9,13.9-119.5,24-187.5,32.9-37,4.9-106.4,11.2-137.5,12.6-7.1.3-21.3,1.1-31.5,1.6-23.9,1.4-135.3,1.4-158,0-9.6-.6-24-1.3-32-1.6s-19.2-1-25-1.5-16.3-1.4-23.5-2c-78-6-174.1-19.9-250.5-36.4-29.1-6.2-79.8-18.6-105.5-25.6-4.4-1.2-9.3-2.6-11-3-31.5-8.4-87.8-26.2-129-40.8-35.8-12.7-89.2-33.7-120-47.2-7.7-3.4-18.9-8.3-25-11-67.1-29.3-155.6-76.1-226.5-119.8-55.1-34-118-77.4-165.1-113.9-3.5-2.7-8.4-6.5-10.9-8.4-54.7-41.7-125.3-104.2-183-161.9-149.9-150-273.2-320.8-366.8-508-48.3-96.5-80.4-175.2-115-282-21.8-67.2-45.9-162.1-57.7-227.5-.8-4.4-2.2-11.8-3-16.5-13.8-74.2-26.4-183.1-29-251-.3-8.5-1-24.3-1.5-35-1.2-25.1-1.2-105.8,0-131,.5-10.7,1.2-26.5,1.5-35,.8-21.5,4.8-72.3,8.1-104.5,3-29.2,10.3-85,13.4-102.5.5-3,1.9-10.9,2.9-17.5,32.6-200.7,102.2-406.7,199.4-590,57.3-108.2,131.2-220.8,203.2-309.5,3.4-4.1,8.3-10.2,11-13.5,73.6-90.9,170.7-189.3,262-265.4,15.2-12.7,51.1-41.6,61.5-49.6,119.2-90.8,234.8-161.4,364-222.2,32.5-15.3,92-40.9,117.5-50.5,4.4-1.7,10-3.8,12.5-4.8,25.7-10.1,73-26.7,108-37.9,92.5-29.5,200.2-54.8,292.5-68.6,46.8-6.9,56.6-8.2,106.5-13.5,10.8-1.2,28.3-2.6,48-4,7.4-.6,16-1.2,19-1.5,5.8-.4,40.5-2.2,72.5-3.5,27.1-1.2,108.5-.4,145.5,1.4Z"/>
    <path d="m1997.5,71.18c-2.7.2-20.3,1-39,1.9s-47.5,2.2-64,3-35.4,1.7-42,2.1c-17,.7-30,1.5-30,1.7-.2.5,3.3,78.2,4.5,100.2,1,18.8,1.6,31.2,2.5,53,.3,7.1.9,21.5,1.5,32,.5,10.4,1.5,29.1,2,41.5,1,21.1,1.6,33.9,4,84.7.5,11.3,1.1,20.7,1.2,20.8.3.2,26.4-.9,46.3-1.9,6.6-.4,21.9-1.1,34-1.7,28.1-1.2,57.7-2.6,83-3.9,11-.5,22.1-1,24.8-1h4.7v-7.8c0-4.4-.3-14.1-.7-21.6l-.6-13.7-12.1.6c-16.7.8-49.8,2.3-76.6,3.5-12.4.6-26.1,1.2-30.5,1.5-4.4.2-12,.5-17,.7l-9,.3-.7-7.5c-.3-4.1-1.1-19-1.7-33-1.6-35.6-2-45.4-2.7-54.2l-.6-7.6,4.4-.6c2.3-.2,16.5-1,31.3-1.6,14.9-.6,34-1.5,42.5-2s24.9-1.2,36.3-1.6c12.2-.4,21-1.1,21.4-1.7.3-.6.5-3.8.4-7.1-.2-3.4-.6-12.6-1-20.6l-.6-14.5-3.5.1c-18.7.5-74,3-115,5.4-9.1.5-16.8.6-17.2.2s-1.2-11.1-1.7-23.7c-.6-12.7-1.5-32.7-2.1-44.5-.5-11.8-1.1-24-1.2-27l-.3-5.5,14-.7c7.7-.3,29.8-1.4,49-2.2,19.3-.9,43.6-2.1,54-2.6,10.5-.5,20.1-.9,21.4-1h2.3l-.7-20.8c-.4-11.4-.9-21-1.2-21.5-.4-.7-2.7-.7-13.8-.1Z"/>
    <path d="m2732.4,231.88c-6.6,6.1-25.1,23.6-40.9,38.7-15.9,15.1-39.1,37.2-51.5,49s-39.2,37.2-59.5,56.5c-20.3,19.2-47.9,45.6-61.5,58.5-13.5,12.9-27.6,26.2-31.3,29.4-3.7,3.3-6.7,6.4-6.7,7s9.9,5.3,21.9,10.5c19.8,8.5,22.1,9.2,23.9,8,1.1-.8,18.5-17.2,38.6-36.4,20.1-19.3,37.1-35.1,37.6-35.3.9-.3,16.5,6,30.5,12.3,2.8,1.3,15.1,6.7,27.5,12s27.5,11.8,33.5,14.5c6.1,2.6,16.6,7.1,23.5,10,6.9,3,13.1,5.9,13.9,6.6,1.1,1,1.4,11.4,2,54.3.4,32.5,1,53.4,1.6,54,1.7,1.6,43.6,19.3,44.2,18.7.6-.5-.9-128.4-2.3-209.6-.2-16.2-.5-53.1-.5-82-.1-28.9-.4-57.6-.8-63.8l-.6-11.3-14.5-6.4c-8-3.6-14.9-6.5-15.5-6.5-.5,0-6.4,5.1-13.1,11.3Zm-1.9,72.4c.7,14.2,1.7,121.3,1.1,121.3-.2,0-17.5-7.4-38.3-16.4s-41.7-18.1-46.5-20.1c-4.9-2.1-8.8-4.1-8.8-4.5s1.9-2.5,4.3-4.5c4.1-3.7,33.9-32.4,69.6-67.1,9.7-9.5,17.8-17,17.9-16.9.2.2.5,3.9.7,8.2Z"/>
    <path d="m1126.5,287.68c-40.2,4.2-82.1,31.9-96.1,63.6-6.8,15.2-9.5,30.8-7.6,43.8,4.3,29.2,20.5,54.1,43.1,65.8,18.3,9.6,36.8,13,79.1,14.7,40.8,1.6,52.9,3.2,67.3,8.8,23.1,9,35.8,28.1,31.7,47.8-3.8,18-15,30.9-35.2,40.4-14.8,6.9-22.8,8.5-42.3,8.4-14.2,0-18.4-.4-25.8-2.2-6.8-1.8-22.2-6.8-25.7-8.5-2-.9.7,4.7,11.9,25.3,7.1,12.9,13.8,24.6,14.9,26,2,2.5,2.3,2.5,18.5,2.9,20.1.4,33.1-1.4,49.7-6.9,49.9-16.3,79-50.5,79-93,0-34.1-20.2-66.5-51.2-82.1-16.9-8.5-34.8-12.6-59.2-13.4-67.2-2.4-76.7-3.6-91.6-11.1-15-7.4-24.2-24.1-21.1-38.2,4.2-18.8,22.1-35.7,47.1-44.4,17.3-6,38.6-6.8,60.4-2.3,4.3.9,8,1.5,8.2,1.3.5-.6-24.7-46.2-25.9-47-1.4-.9-19.9-.7-29.2.3Z"/>
    <path d="m2128.7,360.98c-15.4,5.6-23.4,24.9-16.1,39.4,3.2,6.4,10,12.5,16.1,14.6,19.7,6.7,39.6-6.5,39.7-26.4,0-12.1-8-23.6-19.1-27.4-5.6-1.9-15.4-2-20.6-.2Z"/>
    <path d="m1946,430.08c-1.4.2-12.6.9-25,1.5-193.9,9.4-384.5,54.8-561.5,133.8-155.4,69.3-303.4,167.1-426,281.6-106.6,99.5-192.7,203.8-268.3,325.1-53.8,86.3-103.9,188.7-137.2,280.5-2.3,6.3-5.1,14-6.2,17-21.3,57.5-46.1,146.5-59.8,215-3.9,19.4-5,25.2-9.5,51-8.1,46.2-16.9,122-19,164-.3,5.8-1,18.4-1.6,28-1.4,22.4-1.4,118.3,0,140.5.6,9.3,1.3,22.2,1.6,28.5,1.5,30.6,7.1,83.8,13,125.5,14.5,100.9,39,201.7,71.2,293,45.2,128,99.9,238.5,172.8,348.5,37.3,56.3,80.6,113.3,123.9,162.9,33.7,38.6,93.4,99.8,129,132.1,86,78,180.3,146.6,278.6,202.7,38.8,22.1,87.9,47.2,126,64.5,100.4,45.3,195.2,77.3,303.4,102.3,9.5,2.2,41.7,8.8,61.1,12.4,58.3,11,124.9,19.2,194,23.8,37.5,2.5,147.8,2.5,185.5,0,45.2-3,98.9-8.5,130-13.3,5.2-.8,14.2-2.1,20-3,40.8-6.2,86.4-15.3,133-26.5,9.6-2.3,47.9-12.5,52.5-14,1.7-.5,14.3-4.3,28-8.4,114.3-34,233.6-86.2,339-148.3,85.6-50.4,174.4-115.2,247-180.2,49.1-44,104.5-100.1,143.6-145.4,68.5-79.5,127.6-162.8,177.6-250.6,19.5-34.2,50.5-94.4,61.3-119,2.3-5.2,6.9-15.6,10.2-23,15.9-35.9,27-63.3,39.5-98,52.9-146.9,82-289,91.9-450,2.4-38.6,2.5-134.4.1-173-7.2-116.2-24.5-222.4-53.3-328-4.7-17.1-18.2-62.4-21.4-72-22.3-65.7-34.4-97.2-56.8-148-17-38.5-43.5-92-62-125-45.5-81.1-91.9-150.4-148-220.5-55.7-69.5-124.7-141.8-189.2-198.1-86.3-75.3-169.1-134.2-264.6-188.2-65.3-36.9-133.9-69.4-202.9-96.2-122.5-47.5-248.5-78.8-381.5-95-25.7-3.1-63-6.5-82-7.6-5.8-.3-16.8-1-24.5-1.6-12.9-.9-127.9-2-133.5-1.3Zm118,39.6c31.4,1.1,77.6,4.5,101.5,7.4,2.2.3,9.9,1.2,17,2,46.8,5.6,97.4,14.1,144.5,24.4,184.9,40.3,362.8,115.9,519.5,220.4,50.5,33.8,102.7,73.3,147.9,112.1,69.3,59.5,139.9,132.3,196.1,202.1,3.9,4.7,9.4,11.7,12.4,15.3,3,3.7,13.1,17,22.6,29.7,129.6,173,220.9,372.1,267.5,583.5,16.3,74.1,26.1,141.2,32.5,223.5,2.1,27.8,2.3,33.6,3.1,88.4.9,64.1-.5,101.8-6.2,163.1-17.2,186.5-70.1,372.5-153.5,539.1-66,132.1-150,253-251.2,361.4-22.8,24.4-65.2,66.3-89.2,88.1-91.1,82.8-190.9,153.8-298.5,212.6-3.6,1.9-9,4.9-12,6.6-7.2,3.9-62.1,31.4-69.1,34.5-93.9,42.3-150.3,63.2-236.4,87.7-17.5,4.9-69.7,18.1-79.2,20-2.7.5-9.1,1.9-14.3,3-5.2,1.2-11.5,2.5-14,2.9-2.5.5-15.5,2.9-29,5.4-61.7,11.5-139.6,20.7-195.5,23.2-48,2.1-60.6,2.5-82,2.5-13.2,0-33.4-.5-45-1-11.5-.5-27.7-1.2-36-1.5-8.2-.3-19.7-1-25.5-1.5-5.8-.6-15.9-1.4-22.5-2-207.1-16.6-418.6-80-602.5-180.6-129.5-70.8-245.1-157.5-350-262.4-85.3-85.4-159-178.4-221.2-279.5-17.7-28.8-29.7-49.7-48-83.5-4.2-7.7-33.8-66.7-33.8-67.3,0-.3-2-4.7-4.4-9.8-13.1-28-25-56.4-42.1-100.4-13.2-33.8-35.9-103.8-43.5-134-.4-1.7-1.8-6.6-3-11-5.7-21-10.8-42-18-74.5-2.2-9.8-9.1-46.1-11.5-60-.9-5.2-2-11.8-2.5-14.5-.5-2.8-2.3-14.5-4-26-17.3-120.5-20.4-239.6-9.4-361.5,5.3-58.9,16.6-132.2,28.8-187,.8-3.6,2.2-9.9,3-14,2.8-12.7,14.1-56.7,20.1-78,10-35.9,25-81.1,40.1-121.1,70.9-188.7,179.7-362.4,318.9-509.4,17.5-18.4,62.1-62.5,77.5-76.6,56.2-51.3,111.3-95.2,171.5-136.6,65.3-44.8,135.4-85.1,208.9-120,21.5-10.2,23.7-11.2,56.6-25.3,166.8-71.4,353.2-113.2,535-120,52.2-2,73.5-1.9,128,.1Z"/>
    <path d="m1987,628.18c-1.9.2-8.2.9-14,1.5-43.5,4.6-83.3,21.1-119.5,49.5-10.7,8.4-30.7,28.8-39,39.8-23.4,31.1-37.5,62.8-44.4,100.1-6.2,33.2-5,66,3.5,100,5.6,22.5,18.6,51,32.3,71.3,14.2,20.9,26.5,34.1,51.6,55.2,31,26,53.5,53.7,69.8,85.8,17.5,34.2,26.6,65.8,29.6,102.5,3.5,41.3-2.9,83.2-18.6,121.7-14.2,35.3-33.1,63.9-59.8,90.6-25.7,25.8-53.5,44.4-89,59.4-15.1,6.4-45.3,21.8-61,31.2-61.1,36.5-115.4,85.7-157.7,142.8-23.6,31.8-42,63.8-62.8,109.3-40.6,88.7-125.3,148.2-223,156.8-15.2,1.4-45.6.5-59.5-1.6-48.3-7.4-91.3-25.5-128.2-54.1-11.1-8.6-32-28.9-42.6-41.4-27.9-32.9-58.7-55.7-94.2-69.8-59.9-23.7-125-22.2-183.5,4.2-40.7,18.4-77.4,50.8-101.2,89.2-17.3,28-27.4,56-33,91.4-2,12.9-1.7,52.7.5,65.8,4.5,26.3,11,46.9,21.9,68.6,35.9,71.9,104.3,119.3,184.5,128.1,34.5,3.7,68.1-.4,102.9-12.6,36-12.6,72.7-38.1,98.3-68.4,19-22.4,30.9-34,49.8-48.2,37.2-27.9,77.5-44.4,126.3-51.9,17.4-2.7,55.7-2.4,74.5.4,77.8,11.9,144.7,54.8,187.5,120.3,7.8,11.9,15.1,25.9,27.6,52.9,43.7,94.3,116.5,175.4,207.4,231.2,16.5,10.1,39,21.9,57.5,30.2,35.9,16.1,55.7,27.6,76.5,44.3,10.9,8.7,30.6,28.4,39.3,39.3,59.6,74.3,76.5,172.5,44.8,260.7-17,47.5-44.6,86.2-86.1,120.7-22.8,18.9-35.1,32.1-49.2,52.6-12.3,17.9-21.7,36.7-28.3,56.5-8.8,26.7-11.9,46-11.9,74.5,0,23.3,1.4,34.9,6.9,57.5,9.5,38.8,31.7,77.7,61,107,69.3,69.5,175.8,87.9,264,45.6,71.7-34.3,120.4-100.9,131.2-179.5,2-14.6,2.2-44,.5-57.6-4.8-37.1-17.2-71.1-36.7-100.5-14.6-22-27.9-36.5-51.5-56.1-42.8-35.6-70.4-74.9-87.5-124.3-11.8-34.3-16.7-73.6-13.5-109.1,7.6-83.4,50.3-155.7,120-202.7,11.5-7.8,26-15.5,44.1-23.6,23.2-10.4,32.4-14.9,48.5-23.8,76.2-41.7,142.6-103.2,190.8-176.6,16.4-25,29.4-49.1,45.7-84.8,36.7-80.4,110.6-137.7,197.8-153.4,35-6.3,76.4-5.1,110.6,3.3,53.6,13.1,101.7,41.8,137,81.7,5.5,6.2,13.6,15.3,18,20.2,20.4,23.1,54.6,46.9,84.1,58.6,53.1,21,109.6,22.4,162.8,4.1,32.9-11.3,60-27.9,84.7-51.7,38.8-37.3,62.3-83,69.9-135.3,2.7-18.5,2.7-47.5.1-65.6-6-40.8-21-76.2-46.4-109.9-7.3-9.6-29.4-32-39.3-39.7-33-26-73.1-42.9-116.4-48.9-11-1.5-45-1.5-56,0-27.8,3.9-51.6,11.1-75.9,22.9-23.9,11.6-52.4,33.4-69.6,53.2-24.8,28.6-35.3,38.9-52.5,52-36.8,27.9-77.7,45-125.5,52.7-16,2.6-61.5,2.5-77,0-50.7-8.4-91.1-26.2-131-57.5-11.2-8.9-35.3-33.7-44.8-46.4-11.9-15.8-18.7-26.9-26.4-42.8-20.5-42.4-30-61-37.5-73.5-46.3-77.1-109.5-140.4-186.8-186.9-15.1-9.1-53.4-28.7-63.2-32.4-8.5-3.2-26.5-12.4-38.3-19.6-33.9-20.8-64.5-50.9-86.1-84.8-7.7-12-20.7-38.2-25.7-51.8-13.3-35.7-19-77.7-15.7-115,4.8-53.8,23.5-101.7,56.9-145,8-10.4,32.9-35.6,43.1-43.6,10.1-7.8,28.6-25.9,37.5-36.6,18-21.4,33.7-50.1,42.2-76.8,15.3-48.5,14.6-99.2-2.2-148.1-4.8-13.8-16.8-38-25-50.3-16-24-37.6-46.4-60-62.3-31.4-22.1-66.1-35.7-104.5-40.8-11-1.5-36-2.6-42-1.9Z"/>
    <path d="m1404.3,465.58c-6.4,1.3-11.7,4.5-16.2,9.6-15.9,18.1-3.2,47.4,20.6,47.4s37.4-21.9,27.5-41.6c-3.4-6.7-7.5-10.7-13.7-13.5-5-2.2-12.7-3-18.2-1.9Z"/>
    <path d="m2855.5,606.38c-6,2-13.7,9.2-16.5,15.5-2.7,5.8-2.7,16.7.1,22.7,2.6,5.8,8.1,11.5,14.4,14.8,4.3,2.3,6.2,2.7,13.5,2.7,10.2,0,14.6-1.9,20.9-9.1,6.7-7.7,8.7-17.7,5.5-28.4-1.2-4.1-2.9-6.7-7.3-11.1s-7-6.1-11.1-7.3c-6.7-2-13.1-1.9-19.5.2Z"/>
    <path d="m3691.7,2291.28c-1.9,7.7-5.7,25.1-5.7,25.7,0,.2.7.7,1.6,1,1,.4,2.3-.3,3.6-1.9,4.5-5.8.6-6.2,61.3,6.9,53.9,11.7,53.5,11.6,53.5,12.5,0,.7-3.3,2.7-26.5,15.6-6,3.4-29.9,16.9-53,29.9s-43,23.9-44.3,24.3c-3.5.8-7.1-1.3-8.7-5.1-1.8-4.2-4.1-5.3-4.9-2.2-.3,1.2-2.6,11.7-5.1,23.2s-4.8,21.6-5.1,22.5c-1,3.4,2.7,3,6-.6,1.9-1.9,4.1-3.5,4.9-3.5,1.3,0,41.6,8.5,73.7,15.6,3.6.8,8.5,1.9,11,2.4s7.4,1.6,11,2.4,12.9,2.8,20.7,4.5c7.8,1.6,15.1,3.6,16.2,4.2,2,1.3,4.1,5,4.1,7.4,0,1.9,1.9,3,3.1,1.8,1-1,2.8-7.8,5.5-21.2.8-4.2,1.7-8.4,2-9.4,1-3.3-2.6-3.2-5.7.3-2.9,3.1-3.3,3.2-8.2,2.7-2.9-.3-20.5-3.9-39.2-8-18.7-4.2-43.1-9.5-54.2-11.9-11.2-2.4-20.3-4.5-20.3-4.8,0-.8,130.1-74.6,134.8-76.5,4-1.7,4.4-1.7,6.2,0,1,.9,2,2.9,2.2,4.4.2,1.8.9,2.6,2.2,2.6,1.7,0,2.5-2.4,6.2-19,2.3-10.4,4-19.3,3.8-19.7-.9-1.4-2.6-.8-6.1,2.2-4,3.5-5.7,3.6-17.2,1-4.7-1-15.1-3.3-23.1-5s-17.4-3.8-21-4.6-18-3.9-32-6.9c-35.7-7.7-39.1-8.5-42.3-9.7-2.8-1.1-5.7-5.3-5.7-8.3,0-.8-.8-1.5-1.9-1.5-1.4,0-2.2,1.4-3.4,6.7Z"/>
    <path d="m258.4,2298.38c-10.6,3.7-19.3,12.8-22.5,23.4-3.3,10.6-2.3,32.3,2.6,60.3,4.7,26.5,5,36.1,1.4,43-6.2,12.1-20.5,14.7-33.5,6.1-11.8-7.9-21.7-29.6-24.4-54-1.5-13,.5-29.1,5.4-43.5,2.9-8.5,5.8-12.1,9.7-12.1,3,0,4.7-1.6,3.2-3.1s-30.5-11-31.9-10.5c-2.2.8-1.7,2.4,1.7,5.4l3.1,2.8-2,7.4c-9.1,33.1-7.7,66.7,4.1,94,6.9,15.9,17.6,28.4,29.4,34.1,6.4,3.2,7.4,3.4,17.3,3.4s10.9-.1,18.2-3.8c9-4.4,14.7-10.2,18-18.6,2-4.9,2.3-7.3,2.2-20.1,0-12.4-.6-18-4.2-38.7-5.1-29.3-5.5-40.5-1.9-47.4,5.3-10,18-13.8,28.4-8.6,16.7,8.5,28.3,36,28.3,67.1,0,20.6-3.9,32.7-10.8,33.4-2.9.3-5.1,2.8-3.5,4.2.8.7,5.7,2.1,22.3,6.5,7.2,1.9,9.6,2.2,10.2,1.2,1.3-2,1-2.6-2.3-4.3-3-1.5-3.1-1.8-2.5-5.7,3-19.7,3.6-25.4,3.6-33.9,0-22.3-5.7-45.4-15.5-62.3-5.4-9.5-16.7-20.8-24.1-24.2-7.6-3.6-22-4.3-30-1.5Z"/>
    <path d="m217,2572.78c.1.7,2.9,8.7,6.4,17.8,5.1,13.4,6.6,16.5,8.2,16.5,1.4,0,2-.8,2.2-3,.2-1.7,1.1-3.8,2-4.9,1.6-1.7,2.8-1.8,15.4-1.2,7.5.3,15.6.9,18,1.2l4.3.6,6.8,18.2c9.8,26.3,10.3,27.8,15.8,42.6,2.7,7.4,4.9,13.9,4.9,14.5,0,2-25.6,26.5-27.7,26.5-1.1,0-2.8-.9-3.8-2-2-2.2-2.4-2.3-4.2-1.2-1.2.8-.9,1.6,9.2,29.2,1.6,4.1,3.2,7.9,3.6,8.4,1.2,1.3,3.9-1.2,3.2-3-.3-.8.3-3.6,1.2-6.2,1.6-4,9.5-12.4,49.8-53.1,49.5-49.9,55.9-56.1,58.2-56.1.7,0,2.6,1.1,4.2,2.4,3.5,2.9,5.9,2.1,4.8-1.5-1.9-6.3-13.8-37.5-14.7-38.6-1.5-1.8-3.8-.4-3.8,2.4,0,5.7-1.1,6.3-12.8,6.3-5.9,0-16.3-.5-23.2-1-27.7-2.2-65.2-5-95-7-16.6-1.2-23.6-2.9-27-6.5-2.5-2.6-6-3.4-6-1.3Zm108.5,29.8c20.8,1.2,46.5,3.2,46.5,3.5s-42,41.8-52.9,52.3c-2.4,2.3-4.8,3.9-5.2,3.5-.9-1-22.9-59.1-22.9-60.6,0-.6,3.2-.8,9.3-.3,5,.3,16.4,1.1,25.2,1.6Z"/>
    <path d="m3653.5,2574.08c-15,3.2-30.2,12.1-41.6,24.1-19.9,21.1-33.5,58.1-31.5,85.9,2.9,42.4,36.7,73.5,79.6,73.6,30.2,0,58.2-19.7,74.7-52.6,11.6-23,16.2-50.1,11.8-70.4-6.3-29.9-27.9-52-58.2-59.7-10.9-2.7-24.7-3.1-34.8-.9Zm29.1,21.3c11.1,2.9,20.1,7.9,28.2,15.6,5.9,5.6,8.1,8.6,11.7,16,5.8,11.7,7.5,18.8,7.5,30.7,0,22-11.4,48.1-27.3,62.4-6.9,6.2-19.1,12.7-28.2,15-19.7,5-42.9-1.8-58.1-17-22.3-22.3-24.3-57.6-5-90.2,9.9-16.7,26.2-29.2,43.4-33.2,6.6-1.6,20.4-1.2,27.8.7Z"/>
    <path d="m460.3,2769.28c-.9.3-1.1,1.7-.7,4.4.6,3.4.3,4.2-2.2,6.5-1.6,1.4-9,6.1-16.4,10.3-7.4,4.3-32.4,18.6-55.5,31.9-23.2,13.2-43.3,24.4-44.7,24.7-1.9.5-3.9,0-6.8-1.6-7.3-4.1-7-1.6,1.5,13.2,4.3,7.4,8.3,14,9,14.8,2.1,2.1,3.5.4,3.5-4.3,0-3.1.6-4.8,2.3-6.4,1.2-1.1,23.6-14.3,49.7-29.2s47.9-27.6,48.4-28.1c.6-.5,1.6-.9,2.3-.9s-9.4,16.1-22.4,35.7c-48,72.7-54.3,82.3-54.3,83.2,0,.4,3,.7,6.8.5,3.7-.2,15.3-.8,25.7-1.4,10.5-.5,30-1.5,43.5-2,13.5-.6,25.4-1.2,26.5-1.5,3.6-.7,40-1.7,39.4-1.1-.3.3-23,13.4-50.4,29.1-33.9,19.4-50.8,28.5-52.8,28.5-1.6,0-4.1-.9-5.6-1.9-1.7-1.3-3.2-1.7-4.1-1.1-1.7,1-1.8.7,8.5,18.9,8.8,15.5,11.5,17.8,11.5,9.7,0-2.7.7-5.2,1.8-6.5,1.5-1.8,20.5-13.1,49.7-29.6,6.1-3.4,21.8-12.5,35-20.1s26-14.9,28.5-16.2c4.7-2.4,8.1-2.3,11.1.4,2.3,2,5.1,1.8,4.7-.4-.2-1-5.2-10.5-11.3-21-11.7-20.5-13.5-22.3-14.6-14.4-.3,2.4-1.2,4.8-2,5.2-1.9,1.2-8.2,1.9-29.9,3-35.4,1.9-70.6,3.9-79.4,4.6-7.5.6-8.8.5-8.4-.7.5-1.2,26.9-40.8,57.7-86.3,8.2-12.1,8.9-12.7,13.5-10.2,4.5,2.4,7.2,1.6,5.5-1.6-5-9.5-22.2-38.8-22.7-38.7-.4,0-1.3.3-1.9.6Z"/>
    <path d="m3502.4,2825.38c-2.1,3.7-6.1,10.9-9.1,16.1-2.9,5.2-5.3,9.7-5.3,10.1,0,1.9,3.4,1.8,5.7,0,1.4-1.1,3.8-2,5.2-2,1.6,0,16.7,7.8,37.6,19.6,19.3,10.7,37.7,21,41,22.9,22.6,12.5,38.2,21.5,40.2,23.3,1.8,1.6,2.3,3.1,2.3,6.5,0,6.8,2.2,6.8,6.3-.1,7.4-12.4,14.7-25.9,14.7-27,0-2.2-2.1-2.3-4.9-.3-1.6,1.2-4.2,2.1-5.8,2.1-3.3,0-3.4-.1-49.3-26-12.4-6.9-32.6-18.2-44.9-25.1-12.3-6.8-23.4-13.4-24.7-14.6-1.8-1.7-2.4-3.2-2.4-6.6,0-7.2-2.3-6.8-6.6,1.1Z"/>
    <path d="m3428.6,2935.08c-.3.9.1,2.6.9,3.8s1.5,3.5,1.5,5.2c0,3.4-1.7,5.9-29.9,44.9-9.2,12.7-23.2,32-31.1,42.9-7.8,10.9-15.4,20.6-16.7,21.4-1.9,1.3-3.1,1.4-5.8.6-2.7-.9-3.7-.8-4.6.4-1.6,1.8-1.2,2.2,13.6,12.8,10.4,7.4,12.1,8.3,13.4,7.1,1.2-1.3,1.2-1.8-.2-4-3.4-5.2-2.6-7.1,14-30.2,8.6-12,15.7-22.1,15.9-22.2.2-.4,18.9,12.9,51.1,36.3,8.4,6,23.4,16.8,33.4,24,10,7.1,18.8,14,19.6,15.3,1,1.5,1.4,3.6,1,6.2-.3,2.7-.1,4.3.9,5.1.8.7,1.6,1,1.9.8,2.2-2.2,21.5-29.7,21.5-30.7,0-2.1-2.7-2.5-5.2-.8-4.4,3.1-7.3,2.2-17.8-5.4-3.6-2.6-16.3-11.7-28.2-20.3-53-38.3-64.8-46.9-64.8-47.8,0-1.3,28.6-41.3,31.2-43.6,1.4-1.2,3.6-1.8,7.1-1.8,8.3,0,7.1-2-7-12-6.9-5-13.2-9.1-13.8-9.3-.7-.2-1.5.4-1.9,1.3Z"/>
    <path d="m618.1,3023.48c-1.1.7-1.1,1.5-.1,4.5s.9,4-.5,6.3c-1,1.6-10.1,9.5-20.3,17.8-18.3,14.8-28.2,22.8-41.2,33.5-3.7,3-10.9,8.9-16,13s-12.5,10.1-16.4,13.4c-3.9,3.2-8.5,6.5-10.2,7.4-2.8,1.3-3.5,1.3-6.8-.3-3.2-1.6-3.9-1.6-5.2-.4-1.2,1.3.1,3.3,10.1,15.7,6.4,7.8,12.3,14.2,13.1,14.2,2.1,0,2.7-2.2,1.4-5.4-2-5.3-1.7-5.5,35.9-36.1,4.1-3.3,8.2-6.6,9.1-7.3,1.6-1.1,2.8,0,11.6,10.9,12.8,15.7,25.4,31.3,25.4,31.4,0,0-5,14.7-11.1,32.5-6.1,17.9-11.3,33.3-11.6,34.2-.7,2.3-3,3-5.2,1.6-1.9-1.2-5.1-.5-5.1,1,0,.5,3.2,4.9,7.2,9.8s9.2,11.4,11.7,14.4c5.1,6.4,5.4,6.6,7,4.6,1-1.2.9-2.1-.3-4.5-.9-1.6-1.6-3.8-1.6-4.7,0-1.4,19.2-59.6,23.1-70.1.8-2.2,1.2-2,9.2,4.1,15,11.3,28,13.5,41.7,7,16.4-7.8,26.1-23.2,24.7-39.3-1-10.9-5.3-20.7-14.4-32.8-7.1-9.4-62.6-77.3-63.2-77.3-.3,0-1.2.4-2,.9Zm20.6,45.7c4,4.9,12,14.7,17.9,21.9,17.5,21.3,23.4,31.8,23.4,41.4s-10.4,21.7-20.8,24.7c-5.2,1.5-6,1.5-10.8,0-6.3-2-13.1-7.1-20-15.2-4-4.6-37.7-45.9-42.8-52.3-.8-1-.5-1.7.9-2.7,2.1-1.5,12.7-10.1,29.9-24.2l10.1-8.3,2.5,2.9c1.4,1.6,5.7,6.9,9.7,11.8Z"/>
    <path d="m3235.6,3187.48c-11.9,11.9-15.7,16.3-15.2,17.6.4,1.3,1.2,1.5,2.9,1,6-1.8,6.4-1.7,9,1.7,1.3,1.8,4.1,7.3,6,12.3,4.2,10.6,39.1,99.7,41.9,107,6.1,15.8,6.6,18.8,4.3,27.6-.5,1.9-.3,2.8.8,3.2,1,.4,5.9-4.1,14.7-13.4,12.3-13,13.2-14.2,11.7-15.7-1.3-1.3-1.9-1.4-2.9-.4-1.9,1.9-6.5,1.4-8.6-.8-2.2-2.4-13.5-30.7-12.9-32.4.5-1.1,47.9-50.8,53-55.5,2.3-2,3-2.2,5.4-1.3,1.5.6,8.2,3,14.8,5.2,16.4,5.7,18.5,6.8,18.5,9.4,0,1.1-.4,2.7-.9,3.5-1.1,1.7-.3,4.1,1.3,4.1.6,0,7.4-6.3,15.1-14,12.8-12.8,13.8-14.1,12.3-15.6-1.4-1.4-1.8-1.4-4.6,0-6.3,3.2-8.4,2.7-58.7-14.9-34.2-11.9-44.7-15.5-49-17-2.2-.7-10.5-3.6-18.4-6.4-24.3-8.7-25.5-9.5-23.4-15.2.8-2,.8-3.2-.1-4.4-.9-1.3-3.5.9-17,14.4Zm21.1,18.5c2.1.8,18.4,6.7,36.3,13.2,17.9,6.4,32.7,11.8,32.9,12,.7.6-44.4,47.2-45.4,47-.5-.2-7.4-16.2-15.3-35.7s-14.6-36-14.9-36.7c-.7-1.6,1.8-1.5,6.4.2Z"/>
    <path d="m786.8,3205.48c-.1.5-5,6-10.7,12.1-9.3,10-10.2,11.3-8.9,12.7,1.4,1.3,1.9,1.3,4.7-.2,5.3-2.7,5.4-2.6,32.5,22.3l15.6,14.4-2.1,2.6c-1.9,2.5-26.8,29.6-57.9,63.2-7.4,8-16,17.3-19,20.6-7.9,8.8-10.1,10-15.2,8.5-3.3-1-4.2-1-5,.1-.6.9,1.9,3.9,8.9,10.7,18.7,17.8,21.7,19.4,19.1,9.8-1.1-4.3-1-4.8,1.3-8,1.3-1.9,17.3-19.6,35.4-39.3,44.1-47.9,48.7-52.8,49.7-53.2.4-.2,2.7,1.5,5,3.7,2.4,2.2,10.9,10,18.9,17.3,16.8,15.2,18.8,17.9,17.2,23.2-.9,2.9-.8,3.8.4,4.8,1.3,1,2.7,0,8.9-6.7,13.2-14.2,14.8-16.3,13.4-17.9-1-1.3-1.6-1.3-4.5.1-1.9.9-4.3,1.3-5.7,1-1.3-.4-9.6-7.3-18.5-15.4-8.8-8.2-26.3-24.3-38.9-35.8-31.2-28.6-41.4-38.6-42-41-.3-1.1,0-3.4.6-4.9.8-2.1.7-3.2-.1-4.2-1.3-1.6-2.6-1.8-3.1-.5Z"/>
    <path d="m3085.5,3325.98c-7.7,6.3-14,12-14,12.8,0,.9,1.3,1.2,4.8,1,3.2-.2,5.7.2,7.3,1.2,1.8,1.2,40.4,47.4,58.4,70,1.4,1.7,8,9.8,14.8,18.1,6.7,8.2,12.5,15.9,12.8,17.1s-.2,3.8-1.1,5.8c-1.6,3.4-1.4,5.6.6,5.6.6,0,5.2-3.5,10.3-7.8,5.1-4.2,11.4-9.4,14-11.5,6.4-5.3,6.2-7-.7-6.2-5.1.7-5.5.5-8.5-2.5-1.7-1.7-4.9-5.2-6.9-7.8-2.1-2.6-9.3-11.4-16.1-19.7-6.8-8.2-13.8-16.8-15.6-19s-11.7-14.3-22.1-27c-10.4-12.6-19.9-24.5-21.2-26.4-2.6-3.8-3-7.8-.9-10.7,1.3-1.8.6-4.4-1.3-4.4-.3,0-6.9,5.2-14.6,11.4Z"/>
    <path d="m2977.5,3409.18c-17.3,11.1-16.7,10.6-16,12.5.4,1.1,2,1.5,5.2,1.5,7.6-.1,7.7.1,14.3,40.5,3.2,19.5,7.5,45.7,9.5,58.4,2,12.6,4,25,4.6,27.4.5,2.4.8,4.5.6,4.8-.3.2-24.6-15.6-54.1-35.1-45.5-30.2-53.9-36.1-55.3-39.1-1.6-3.4-1.6-3.6.5-6.5,1.2-1.6,2.2-3.4,2.2-4,0-3-4.2-1.2-19.5,8.6-20.1,12.9-21.7,15-11.4,14.5,6.2-.3,7.2.3,47.9,26.9,15.7,10.2,39.4,25.7,52.8,34.4,28.8,18.9,31.8,21.8,27.7,27.2-1.6,2.2-1.9,5-.6,5.8.8.6,35.4-20.7,39.3-24.2,2.6-2.3.6-4.2-3.8-3.5-3.8.6-5.8-.6-8-4.8-1.2-2.4-4.7-21.9-8.3-45.9-.5-3.6-1.7-10.9-2.5-16.3-2.6-16.3-4.4-27.7-6-37.7-6.6-42.8-6.7-43.7-3.5-48.9,1.9-3.1,2-6.1.2-6.1-.5,0-7.6,4.3-15.8,9.6Z"/>
    <path d="m1097.4,3462.08c-.3.8.4,2.8,1.5,4.4,1.2,1.6,2.1,3.8,2.1,4.8,0,1.7-4.6,10.2-21.3,39.8-2.8,4.9-6.7,11.9-8.7,15.5s-7.8,13.9-13,23c-5.1,9.1-12.2,21.7-15.7,28-7.6,13.6-9.2,15.3-14.7,14.8-3.2-.2-4.1.1-4.4,1.4q-.4,1.9,17.3,11.8c7.2,4,18.1,10.1,24.3,13.6,6.1,3.5,16.3,9.3,22.5,12.8,6.1,3.5,19.1,10.8,28.7,16.2,20.9,11.8,22.5,13.1,21.6,18.4-.5,3-.2,3.9,1.1,4.4.9.4,2,.3,2.4-.1,2.3-2.5,15-26.7,14.5-27.9-.7-1.9-2.6-1.7-5.6.6-4.6,3.6.7,6.2-73-35.3-11.2-6.3-20.6-11.9-20.7-12.4-.2-.5,3.6-7.9,8.4-16.4,4.7-8.5,10.7-19.2,13.3-23.7,2.6-4.6,4.8-8.5,5.1-8.5.5-.2,46.2,25.2,53.1,29.5,4.9,3.1,6.9,6.7,6.1,11-.5,2.8,1.9,4.5,3.5,2.5.5-.7,4.2-7,8.2-14.1,7.9-14.2,8.1-16.7,1.1-12.8-2.1,1.2-4.5,2.2-5.3,2.2-1.1,0-57-30.8-58.4-32.3-.3-.2,2.2-5.1,5.4-10.8,3.3-5.7,8.4-14.9,11.5-20.4s6.2-10.8,7-11.9c1.3-1.7,3.8-.4,44.3,22.3,23.6,13.3,43.7,25.2,44.7,26.4,1.1,1.4,1.6,3.6,1.5,6.2-.2,2.9.1,4,1.3,4.3,1.1.2,3.8-3.7,9-13,4.1-7.3,7.5-13.8,7.7-14.5.6-2.4-2.6-2.5-5.7-.2-4.1,3-6.8,2.3-20.4-5.5-6.2-3.5-23.8-13.5-39.2-22.1-15.4-8.7-35.1-19.8-43.7-24.6-8.7-4.9-16-8.9-16.3-8.9s-.8.7-1.1,1.5Z"/>
    <path d="m2723.5,3553.88c-6,2.9-14.9,7-19.7,9.2-6.3,2.8-8.8,4.4-8.8,5.7,0,1.4.8,1.8,3.3,1.8,3.8,0,5,.7,6.6,3.7,1.6,3.1,1.6,143.5,0,148.4-.7,1.9-2.2,4.5-3.5,6-1.3,1.4-2.4,3-2.4,3.6,0,3.3,2.5,2.5,25.5-8.2,5.5-2.6,10.1-4.8,10.3-4.9.1-.2,0-1.1-.4-2-.4-1-1.8-1.6-3.9-1.6s-3.9-.8-5.1-2.1c-1.7-1.9-1.9-3.8-1.9-19.5v-17.5l10.5-4.8c11.8-5.4,16.7-7.7,42.7-19.7,10-4.6,18.7-8.4,19.5-8.4,2.1,0,28.8,23.9,28.8,25.7,0,.9-.9,2.6-2,3.8-1.9,2.1-1.9,5.5,0,5.5.5,0,8.8-3.7,18.5-8.2,19.3-8.9,21.3-10.9,12-11.8-7.6-.8-12.8-4.3-37.6-25.9-4.2-3.6-13.1-11.3-19.9-17.1s-16.2-13.9-21-18-14.5-12.5-21.6-18.5c-21.4-18.3-22.4-19.6-18.4-24.8,1.8-2.2,1.9-5.8.1-5.7-.3.1-5.5,2.4-11.6,5.3Zm6.6,30.5c7.7,7,35.4,31.3,45.6,40,4,3.4,7.3,6.6,7.3,7.1,0,.4-7.8,4.3-17.2,8.6-9.5,4.3-22.8,10.5-29.6,13.7-8.2,3.8-12.4,5.3-12.7,4.5-.7-2.5-1.3-79.7-.6-79.7.5,0,3.7,2.6,7.2,5.8Z"/>
    <path d="m1319.1,3576.48c-.7,1.2-.3,2.3,1.7,4.4,1.8,1.9,2.6,3.7,2.5,6-.1,1.7-6.8,20.5-14.9,41.7s-15.3,40.3-16.1,42.5-2.5,6.7-3.8,10c-1.2,3.3-4.4,11.4-6.9,18.1-5.1,13.3-7.3,16.4-11.5,16.4-3.1,0-6,2.5-4.5,4,1,.9,28,11.6,31.9,12.6,3.8.9,4.4-2.1,1.1-5.5-1.5-1.6-2.6-3.9-2.6-5.5,0-2.1,19.3-54.9,20.6-56.5.5-.6,49.7,18,51,19.3.6.6,3,10.8,5.3,22.6,2.4,11.8,5.4,26.9,6.7,33.5,3.3,16.6,3.2,17.6-2,17.9-1.4.1-2.1.8-2.1,2.1,0,1.6,2.9,3,16.5,8.2,9.1,3.5,17,6.3,17.6,6.3,2.6,0,2.2-3-.6-5-4.9-3.5-4-.1-15.5-59.3-2-10.4-3.5-19-3.3-19.2s3.7.4,7.8,1.2c18.4,3.6,33.6-1.8,42.1-15,8.7-13.5,10.3-29.2,4.1-41.3-6-11.9-19.7-21.8-41.2-29.7-3.6-1.3-16.6-6.3-29-11-57.8-22-53.9-20.6-54.9-18.8Zm55.4,35.4c32.5,12.4,38.4,15.2,45.1,21.1,6.4,5.5,8.8,10.6,8.7,18.6-.1,7.6-2.7,14.2-8,20-8.8,9.9-19.1,8.6-60.8-7.5-9.3-3.7-21.4-8.3-26.8-10.3-11.4-4.3-11.1-3-5.4-17.7,13.6-35.6,14-36.6,15.6-36.2.9.3,15.1,5.7,31.6,12Z"/>
    <path d="m2400.3,3658.28c-.7.2-1.3,1.5-1.3,2.8s-1,3.5-2.2,5c-2.6,2.8-3,3-57.8,13.5-17.3,3.3-33.1,6.4-35,6.9s-11.3,2.4-20.7,4.2c-14.6,2.8-17.3,3.6-17.3,5.1,0,1.1,1,2,2.8,2.4,8.1,1.7,6.9-1.9,19.7,63.9,3.1,15.9,7.4,38,9.6,48.9,2.1,11,3.9,21.3,3.9,22.9,0,2.1-1,3.9-3.6,6.3-2.5,2.2-3.5,3.8-3,4.9.3,1,1.2,1.5,2.1,1.1.8-.3,5.4-1.2,10.3-2.1,18.9-3.4,24.7-4.9,25-6.8.2-1-.4-2-1.5-2.3-6.4-2.1-7.3-2.8-8.7-6.8-1.5-3.9-11.6-54.4-11.6-57.7,0-1.1,6.3-2.7,27.3-6.8,14.9-2.9,28.8-5.7,30.7-6.2,8.3-2.1,12.7-.8,15.8,4.6.6,1.2,1.6,1.6,2.7,1.1,1.4-.5,1.6-1.4,1-5.4-1.3-9.6-4.8-25.7-5.7-26.9-1.5-1.9-3.6-.4-4.2,3.2-1.1,5.9-3.5,6.7-38.4,13.5-17.7,3.4-32.4,6.1-32.6,5.9-1-1.1-9.8-48.1-9.2-49.4.3-.8,1.4-1.5,2.4-1.5s22.2-4.1,47.2-9c25-5,46.9-9,48.8-9,2.6,0,4.2.8,6.7,3.5,4,4.4,6.8,4,5.8-.8-.4-1.8-1.8-9-3.2-16.1-2.5-12.5-3.2-14-5.8-12.9Z"/>
    <path d="m1621,3673.18c0,.9,1.1,2.7,2.5,4s2.5,3.2,2.5,4.3c0,2.5-5.1,10-26.5,38.6-9.4,12.6-26.4,35.4-37.7,50.5-11.2,15.1-22,29-23.8,30.8-2.2,2-4.9,3.5-7.3,3.9-3.6.5-5.8,2.6-4.4,4,1,.9,36,8.3,36.9,7.7,1.4-.9.9-3.2-1-4.6-3.7-2.6-4.3-5.2-2.1-9.2,2.6-5,18.7-26.6,19.7-26.6.7,0,22,4.4,41.2,8.4,4.1.9,12.9,2.8,19.5,4.1,19.6,4.1,17.8,3,19.6,11.6.9,4.1,2.7,11.8,3.8,17.2,2.8,12.3,2.6,13.9-1.9,15.3-3.8,1.3-5.1,3.9-2.3,4.8,2.9.8,29.4,6.3,34.1,7.1,3.7.6,4.2.4,4.2-1.2,0-1-1.3-2.6-2.9-3.5-3.3-1.8-7.2-8.8-8.9-15.8-.6-2.5-4.9-21.7-9.6-42.5-4.7-20.9-11-49.2-14.1-62.9-3.1-13.6-5.5-26.4-5.3-28.5.3-3,.9-3.9,4.1-5.4,4.2-2.1,4.8-4.4,1.5-5.1-1.3-.3-5.4-1.2-9.3-2-17-3.7-30.9-6.6-31.7-6.6-.4,0-.8.7-.8,1.6Zm20.5,39.4c1.4,6.9,3.3,15.6,4.1,19.5,7.3,33.6,9.1,43.1,8.6,43.6-.4.3-9.5-1.3-20.2-3.6s-24.5-5.2-30.7-6.5c-6.1-1.3-11.7-2.6-12.4-3-.8-.5,5-9.2,18.1-27.1,10.6-14.5,21.4-29.2,23.9-32.7,5.4-7.5,4.9-8,8.6,9.8Z"/>
    <path d="m2048.7,3710.18c-33.1,5.2-58,23.7-69,51.4-3.5,8.9-4.7,16.4-4.7,29.1,0,15,2,24.2,7.9,35.7,10.5,20.5,31,35.6,57.2,41.9,10.6,2.6,40.9,2.5,52.9-.1,29.4-6.4,48.7-20.4,60.5-44,6.5-13,7.9-19.5,7.8-35.1-.1-15.2-2.1-24.3-8-36.1-9-18.1-26.6-32.7-47.4-39.3-15.6-5-38.5-6.4-57.2-3.5Zm40.9,17.4c13.3,3.4,23.6,9.1,32.9,18.4s13.3,16.4,16.1,28.2c2.3,9.3,2.3,24.1-.1,31.9-6.5,21.8-23.7,38-48,45.2-4.8,1.4-9.6,1.8-24,1.8-17.6,0-18.2-.1-26.6-3.1-21.4-7.6-37.2-24.3-42.4-44.9-1.9-7.6-1.9-22.4,0-30,6-23.7,26.2-42.3,52-48,9.7-2.1,30.7-1.9,40.1.5Z"/>
  </g>
</svg>